<svg xmlns="http://www.w3.org/2000/svg" class="cf-icon-svg" viewBox="0 0 14 19" id="icon-flag"><path d="M1.529 15.694a.554.554 0 0 1-.554-.555V3.46a.554.554 0 0 1 1.108 0v11.68a.554.554 0 0 1-.554.555zm11.496-6.007a1.032 1.032 0 0 1-.283.704l-.136.103a3.797 3.797 0 0 1-2.275.923c-1.723.003-2.832-1.728-4.703-1.728a3.96 3.96 0 0 0-1.916.555l-.167.092c-.193.122-.35.011-.35-.246V4.46a.821.821 0 0 1 .217-.61l.107-.063q.159-.094.311-.174a3.947 3.947 0 0 1 1.685-.489c1.932-.071 3.05 1.715 4.795 1.726a3.69 3.69 0 0 0 2.2-.852l.166-.122c.192-.158.35-.078.35.18z"></path></svg>
